<svg width="149" height="54" viewBox="0 0 149 54" fill="none" xmlns="http://www.w3.org/2000/svg">
<path fill-rule="evenodd" clip-rule="evenodd" d="M16.5166 7.68128C19.7094 1.78061 28.1328 1.73564 31.4082 7.54359L31.4854 7.68128L34.292 12.8746L32.0352 16.3785L32.0254 16.3932C31.9552 16.5061 31.8828 16.6197 31.8125 16.7301L27.9541 9.59144C26.2549 6.45171 21.7501 6.45177 20.0508 9.59144L9.87602 28.4039C10.9295 28.1522 12.1113 27.9868 13.4346 27.944H13.4991L13.4971 27.9391C16.8201 27.9391 19.6636 29.1467 22.1534 30.7955C21.2624 31.9325 20.3993 32.9668 19.5635 33.903C17.6736 32.7058 15.7209 31.9627 13.5323 31.9577C10.1139 32.0731 8.21344 33.1798 7.19438 34.0934C6.66729 34.5653 6.3363 35.0228 6.14555 35.3366C6.05043 35.4943 5.99017 35.6144 5.96 35.6823C5.94494 35.7174 5.93419 35.7378 5.93168 35.7428C4.71175 38.5938 6.79211 41.8623 9.98539 41.8649V41.8707C16.6705 41.8662 23.9433 32.479 33.5088 17.3327L35.2227 14.6012V14.5993L36.5899 17.1285H36.5909L45.418 33.4537C48.455 39.0659 44.3869 45.8824 38.0118 45.8825H38.0088V45.8805C35.2632 45.8804 32.8939 44.7788 30.8233 43.3483C28.9107 42.028 27.0854 40.3062 25.3711 38.6998C26.217 37.7435 27.0734 36.714 27.9444 35.6071V35.61C29.784 37.3292 31.418 38.88 33.1045 40.0446C34.8162 41.2267 36.3875 41.8648 38.0088 41.8649V41.8668H38.0118C41.3499 41.8667 43.4755 38.2999 41.8868 35.3659L34.9502 22.5368C25.1595 37.7104 18.0612 45.8883 9.98051 45.8883V45.8795C3.60819 45.8759 -0.455123 39.0616 2.5811 33.4508L16.5166 7.68128Z" fill="url(#lg0)"/>
<mask id="lgmask" maskUnits="userSpaceOnUse" x="51.2017" y="5.73999" width="96" height="48" fill="black">
<rect fill="white" x="51.2017" y="5.73999" width="96" height="48"/>
<path d="M124.312 15.9626C124.501 15.7757 124.806 15.7757 124.996 15.9626L126.476 17.4265C126.568 17.5178 126.621 17.6424 126.621 17.7722V20.2507C126.621 20.4237 126.761 20.5642 126.934 20.5642C127.04 20.5641 127.138 20.5098 127.197 20.4216C127.487 19.9849 127.87 19.446 128.346 18.8044C128.887 18.0799 129.657 17.4354 130.658 16.8718C131.67 16.2969 133.038 16.0096 134.763 16.0095C136.994 16.0095 138.961 16.5669 140.664 17.6824C142.366 18.798 143.694 20.3802 144.649 22.4275C145.604 24.4748 146.082 26.8902 146.082 29.6736C146.082 32.4799 145.604 34.9127 144.649 36.9714C143.694 39.0185 142.372 40.6061 140.681 41.7332C138.99 42.8487 137.041 43.406 134.833 43.406C133.13 43.406 131.767 43.1248 130.744 42.5613C129.72 41.9862 128.932 41.3357 128.38 40.6111C127.868 39.9274 127.464 39.3529 127.169 38.8875C127.128 38.8226 127.057 38.783 126.98 38.783C126.858 38.783 126.758 38.8823 126.758 39.0046V51.3689C126.758 51.5017 126.704 51.6288 126.608 51.7205L125.058 53.2C124.87 53.3792 124.575 53.3792 124.387 53.2L122.837 51.7205C122.741 51.6288 122.687 51.5016 122.687 51.3689V17.7722C122.687 17.6424 122.739 17.5178 122.832 17.4265L124.312 15.9626ZM107.885 16.0095C108.736 16.0095 109.714 16.1131 110.818 16.3201C111.934 16.5156 113.009 16.9236 114.044 17.5447C115.091 18.1658 115.959 19.1035 116.649 20.3572C117.339 21.6108 117.684 23.2897 117.684 25.3943V42.6111C117.684 42.7641 117.612 42.9081 117.49 42.9998L115.939 44.157C115.767 44.2856 115.53 44.2857 115.358 44.157L113.808 42.9998C113.685 42.9081 113.613 42.7642 113.613 42.6111V39.3923C113.613 39.3224 113.556 39.2654 113.486 39.2654C113.437 39.2654 113.393 39.294 113.371 39.3376C113.091 39.892 112.643 40.4837 112.026 41.1121C111.382 41.7675 110.525 42.3249 109.456 42.7849C108.386 43.245 107.08 43.4753 105.539 43.4753C103.86 43.4753 102.336 43.1586 100.967 42.5261C99.5986 41.8821 98.5116 40.9564 97.7065 39.7488C96.9014 38.5296 96.4985 37.057 96.4985 35.3318C96.4986 33.8137 96.798 32.5834 97.396 31.6404C97.994 30.6858 98.7929 29.9378 99.7935 29.3972C100.794 28.8567 101.898 28.4537 103.106 28.1892C104.325 27.9132 105.55 27.695 106.781 27.5339C108.391 27.3269 109.697 27.1716 110.698 27.0681C111.71 26.9531 112.446 26.7633 112.906 26.4988C113.377 26.2343 113.613 25.7743 113.613 25.1189V24.9802C113.613 23.2782 113.147 21.9555 112.215 21.0125C111.295 20.0694 109.898 19.5974 108.023 19.5974C106.079 19.5974 104.556 20.0238 103.452 20.8748C102.499 21.6093 101.789 22.3866 101.325 23.2068C101.201 23.4251 100.941 23.5353 100.705 23.4509L97.7446 22.3943C97.4809 22.3001 97.3505 22.0024 97.4712 21.7498C98.1337 20.3641 98.9826 19.2674 100.018 18.4597C101.18 17.5511 102.445 16.9178 103.814 16.5613C105.194 16.1933 106.551 16.0095 107.885 16.0095ZM84.3149 10.0828C84.5027 9.90368 84.7981 9.9036 84.9858 10.0828L86.5356 11.5623C86.6317 11.6539 86.686 11.7811 86.686 11.9138V16.3542H91.8589C92.1272 16.3542 92.3452 16.5723 92.3452 16.8406V19.3191C92.3452 19.5874 92.1272 19.8044 91.8589 19.8044H86.686V35.2634C86.6861 36.4134 86.8525 37.2763 87.186 37.8513C87.5311 38.4148 87.9685 38.7945 88.4976 38.99C89.0381 39.174 89.6075 39.2654 90.2056 39.2654C90.6541 39.2654 91.0225 39.243 91.3101 39.197C91.3895 39.1811 91.465 39.1653 91.5356 39.1511C91.7937 39.0998 92.0456 39.2637 92.104 39.5203L92.7339 42.3025C92.7875 42.5393 92.6581 42.7806 92.4243 42.8464C92.2106 42.9066 91.96 42.9669 91.6724 43.0271C91.1778 43.1421 90.5506 43.199 89.7915 43.199C88.6413 43.199 87.5138 42.9523 86.4097 42.4578C85.317 41.9632 84.4087 41.2091 83.6841 40.197C82.9711 39.1849 82.6147 37.9081 82.6147 36.3669V19.8044H79.0972C78.8291 19.8042 78.6118 19.5872 78.6118 19.3191V16.8406C78.6118 16.5724 78.8291 16.3545 79.0972 16.3542H82.6147V11.9138C82.6147 11.7811 82.6691 11.6539 82.7651 11.5623L84.3149 10.0828ZM56.5405 16.3542C56.8088 16.3542 57.0269 16.5723 57.0269 16.8406V42.3679C57.0269 42.6362 56.8088 42.8542 56.5405 42.8542H53.4409C53.1726 42.8542 52.9556 42.6362 52.9556 42.3679V16.8406C52.9556 16.5723 53.1726 16.3543 53.4409 16.3542H56.5405ZM63.6802 15.7205C63.8694 15.5335 64.1735 15.5335 64.3628 15.7205L65.8442 17.1833C65.9366 17.2746 65.9888 17.3992 65.9888 17.5291V20.1941C65.9888 20.2838 66.0612 20.357 66.1509 20.3572C66.219 20.3572 66.2805 20.3142 66.3052 20.2507C66.7958 18.9883 67.6564 17.9592 68.8872 17.1648C70.1523 16.3484 71.5785 15.9402 73.1655 15.9402C73.4645 15.9402 73.8382 15.9463 74.2866 15.9578C74.5059 15.9634 74.6997 15.9699 74.8667 15.9783C75.1158 15.9909 75.3051 16.1995 75.3052 16.449V19.5281C75.305 19.844 75.0044 20.0893 74.6919 20.0427C74.591 20.0277 74.4789 20.012 74.356 19.9949C73.873 19.9144 73.3613 19.8738 72.8208 19.8738C71.5326 19.8738 70.3818 20.1437 69.3696 20.6843C68.369 21.2134 67.5753 21.9502 66.9888 22.8933C66.4138 23.8248 66.1265 24.8887 66.1265 26.0847V42.3679C66.1265 42.6361 65.9093 42.854 65.6411 42.8542H62.5405C62.2723 42.8541 62.0552 42.6361 62.0552 42.3679V17.5291C62.0552 17.3992 62.1073 17.2746 62.1997 17.1833L63.6802 15.7205ZM113.613 30.824C113.613 30.3878 112.893 29.9812 112.474 30.1042C111.899 30.2653 111.232 30.4094 110.473 30.5359C109.726 30.6509 108.995 30.7544 108.282 30.8464C107.58 30.9269 107.011 30.996 106.574 31.0535C105.516 31.1915 104.527 31.4159 103.607 31.7263C102.698 32.0254 101.962 32.48 101.398 33.0896C100.846 33.6876 100.57 34.504 100.57 35.5388C100.57 36.9535 101.094 38.0232 102.14 38.7478C103.198 39.4609 104.538 39.8181 106.16 39.8181C107.77 39.8181 109.128 39.5015 110.232 38.8689C111.347 38.2363 112.187 37.4192 112.75 36.4187C113.325 35.4182 113.613 34.3655 113.613 33.2615V30.824ZM134.281 19.6667C132.625 19.6667 131.233 20.087 130.106 20.9265C128.979 21.7546 128.127 22.9159 127.552 24.4109C126.977 25.8946 126.69 27.626 126.69 29.6042C126.69 31.6055 126.983 33.3714 127.57 34.9011C128.156 36.4192 129.013 37.6099 130.14 38.4724C131.267 39.3234 132.648 39.7488 134.281 39.7488C135.983 39.7487 137.403 39.3 138.542 38.4031C139.692 37.4945 140.554 36.2754 141.129 34.7458C141.716 33.2046 142.009 31.4905 142.009 29.6042C142.009 27.741 141.722 26.0614 141.147 24.5662C140.583 23.0596 139.727 21.8689 138.577 20.9949C137.438 20.1093 136.006 19.6668 134.281 19.6667ZM54.6196 6.88159C54.8093 6.69225 55.1165 6.69232 55.3062 6.88159L57.5825 9.15796C57.7719 9.34762 57.7719 9.65483 57.5825 9.84448L55.3062 12.1208C55.1165 12.3101 54.8092 12.3101 54.6196 12.1208L52.3442 9.84448C52.1545 9.65475 52.1545 9.34769 52.3442 9.15796L54.6196 6.88159Z"/>
</mask>
<path d="M124.312 15.9626C124.501 15.7757 124.806 15.7757 124.996 15.9626L126.476 17.4265C126.568 17.5178 126.621 17.6424 126.621 17.7722V20.2507C126.621 20.4237 126.761 20.5642 126.934 20.5642C127.04 20.5641 127.138 20.5098 127.197 20.4216C127.487 19.9849 127.87 19.446 128.346 18.8044C128.887 18.0799 129.657 17.4354 130.658 16.8718C131.67 16.2969 133.038 16.0096 134.763 16.0095C136.994 16.0095 138.961 16.5669 140.664 17.6824C142.366 18.798 143.694 20.3802 144.649 22.4275C145.604 24.4748 146.082 26.8902 146.082 29.6736C146.082 32.4799 145.604 34.9127 144.649 36.9714C143.694 39.0185 142.372 40.6061 140.681 41.7332C138.99 42.8487 137.041 43.406 134.833 43.406C133.13 43.406 131.767 43.1248 130.744 42.5613C129.72 41.9862 128.932 41.3357 128.38 40.6111C127.868 39.9274 127.464 39.3529 127.169 38.8875C127.128 38.8226 127.057 38.783 126.98 38.783C126.858 38.783 126.758 38.8823 126.758 39.0046V51.3689C126.758 51.5017 126.704 51.6288 126.608 51.7205L125.058 53.2C124.87 53.3792 124.575 53.3792 124.387 53.2L122.837 51.7205C122.741 51.6288 122.687 51.5016 122.687 51.3689V17.7722C122.687 17.6424 122.739 17.5178 122.832 17.4265L124.312 15.9626ZM107.885 16.0095C108.736 16.0095 109.714 16.1131 110.818 16.3201C111.934 16.5156 113.009 16.9236 114.044 17.5447C115.091 18.1658 115.959 19.1035 116.649 20.3572C117.339 21.6108 117.684 23.2897 117.684 25.3943V42.6111C117.684 42.7641 117.612 42.9081 117.49 42.9998L115.939 44.157C115.767 44.2856 115.53 44.2857 115.358 44.157L113.808 42.9998C113.685 42.9081 113.613 42.7642 113.613 42.6111V39.3923C113.613 39.3224 113.556 39.2654 113.486 39.2654C113.437 39.2654 113.393 39.294 113.371 39.3376C113.091 39.892 112.643 40.4837 112.026 41.1121C111.382 41.7675 110.525 42.3249 109.456 42.7849C108.386 43.245 107.08 43.4753 105.539 43.4753C103.86 43.4753 102.336 43.1586 100.967 42.5261C99.5986 41.8821 98.5116 40.9564 97.7065 39.7488C96.9014 38.5296 96.4985 37.057 96.4985 35.3318C96.4986 33.8137 96.798 32.5834 97.396 31.6404C97.994 30.6858 98.7929 29.9378 99.7935 29.3972C100.794 28.8567 101.898 28.4537 103.106 28.1892C104.325 27.9132 105.55 27.695 106.781 27.5339C108.391 27.3269 109.697 27.1716 110.698 27.0681C111.71 26.9531 112.446 26.7633 112.906 26.4988C113.377 26.2343 113.613 25.7743 113.613 25.1189V24.9802C113.613 23.2782 113.147 21.9555 112.215 21.0125C111.295 20.0694 109.898 19.5974 108.023 19.5974C106.079 19.5974 104.556 20.0238 103.452 20.8748C102.499 21.6093 101.789 22.3866 101.325 23.2068C101.201 23.4251 100.941 23.5353 100.705 23.4509L97.7446 22.3943C97.4809 22.3001 97.3505 22.0024 97.4712 21.7498C98.1337 20.3641 98.9826 19.2674 100.018 18.4597C101.18 17.5511 102.445 16.9178 103.814 16.5613C105.194 16.1933 106.551 16.0095 107.885 16.0095ZM84.3149 10.0828C84.5027 9.90368 84.7981 9.9036 84.9858 10.0828L86.5356 11.5623C86.6317 11.6539 86.686 11.7811 86.686 11.9138V16.3542H91.8589C92.1272 16.3542 92.3452 16.5723 92.3452 16.8406V19.3191C92.3452 19.5874 92.1272 19.8044 91.8589 19.8044H86.686V35.2634C86.6861 36.4134 86.8525 37.2763 87.186 37.8513C87.5311 38.4148 87.9685 38.7945 88.4976 38.99C89.0381 39.174 89.6075 39.2654 90.2056 39.2654C90.6541 39.2654 91.0225 39.243 91.3101 39.197C91.3895 39.1811 91.465 39.1653 91.5356 39.1511C91.7937 39.0998 92.0456 39.2637 92.104 39.5203L92.7339 42.3025C92.7875 42.5393 92.6581 42.7806 92.4243 42.8464C92.2106 42.9066 91.96 42.9669 91.6724 43.0271C91.1778 43.1421 90.5506 43.199 89.7915 43.199C88.6413 43.199 87.5138 42.9523 86.4097 42.4578C85.317 41.9632 84.4087 41.2091 83.6841 40.197C82.9711 39.1849 82.6147 37.9081 82.6147 36.3669V19.8044H79.0972C78.8291 19.8042 78.6118 19.5872 78.6118 19.3191V16.8406C78.6118 16.5724 78.8291 16.3545 79.0972 16.3542H82.6147V11.9138C82.6147 11.7811 82.6691 11.6539 82.7651 11.5623L84.3149 10.0828ZM56.5405 16.3542C56.8088 16.3542 57.0269 16.5723 57.0269 16.8406V42.3679C57.0269 42.6362 56.8088 42.8542 56.5405 42.8542H53.4409C53.1726 42.8542 52.9556 42.6362 52.9556 42.3679V16.8406C52.9556 16.5723 53.1726 16.3543 53.4409 16.3542H56.5405ZM63.6802 15.7205C63.8694 15.5335 64.1735 15.5335 64.3628 15.7205L65.8442 17.1833C65.9366 17.2746 65.9888 17.3992 65.9888 17.5291V20.1941C65.9888 20.2838 66.0612 20.357 66.1509 20.3572C66.219 20.3572 66.2805 20.3142 66.3052 20.2507C66.7958 18.9883 67.6564 17.9592 68.8872 17.1648C70.1523 16.3484 71.5785 15.9402 73.1655 15.9402C73.4645 15.9402 73.8382 15.9463 74.2866 15.9578C74.5059 15.9634 74.6997 15.9699 74.8667 15.9783C75.1158 15.9909 75.3051 16.1995 75.3052 16.449V19.5281C75.305 19.844 75.0044 20.0893 74.6919 20.0427C74.591 20.0277 74.4789 20.012 74.356 19.9949C73.873 19.9144 73.3613 19.8738 72.8208 19.8738C71.5326 19.8738 70.3818 20.1437 69.3696 20.6843C68.369 21.2134 67.5753 21.9502 66.9888 22.8933C66.4138 23.8248 66.1265 24.8887 66.1265 26.0847V42.3679C66.1265 42.6361 65.9093 42.854 65.6411 42.8542H62.5405C62.2723 42.8541 62.0552 42.6361 62.0552 42.3679V17.5291C62.0552 17.3992 62.1073 17.2746 62.1997 17.1833L63.6802 15.7205ZM113.613 30.824C113.613 30.3878 112.893 29.9812 112.474 30.1042C111.899 30.2653 111.232 30.4094 110.473 30.5359C109.726 30.6509 108.995 30.7544 108.282 30.8464C107.58 30.9269 107.011 30.996 106.574 31.0535C105.516 31.1915 104.527 31.4159 103.607 31.7263C102.698 32.0254 101.962 32.48 101.398 33.0896C100.846 33.6876 100.57 34.504 100.57 35.5388C100.57 36.9535 101.094 38.0232 102.14 38.7478C103.198 39.4609 104.538 39.8181 106.16 39.8181C107.77 39.8181 109.128 39.5015 110.232 38.8689C111.347 38.2363 112.187 37.4192 112.75 36.4187C113.325 35.4182 113.613 34.3655 113.613 33.2615V30.824ZM134.281 19.6667C132.625 19.6667 131.233 20.087 130.106 20.9265C128.979 21.7546 128.127 22.9159 127.552 24.4109C126.977 25.8946 126.69 27.626 126.69 29.6042C126.69 31.6055 126.983 33.3714 127.57 34.9011C128.156 36.4192 129.013 37.6099 130.14 38.4724C131.267 39.3234 132.648 39.7488 134.281 39.7488C135.983 39.7487 137.403 39.3 138.542 38.4031C139.692 37.4945 140.554 36.2754 141.129 34.7458C141.716 33.2046 142.009 31.4905 142.009 29.6042C142.009 27.741 141.722 26.0614 141.147 24.5662C140.583 23.0596 139.727 21.8689 138.577 20.9949C137.438 20.1093 136.006 19.6668 134.281 19.6667ZM54.6196 6.88159C54.8093 6.69225 55.1165 6.69232 55.3062 6.88159L57.5825 9.15796C57.7719 9.34762 57.7719 9.65483 57.5825 9.84448L55.3062 12.1208C55.1165 12.3101 54.8092 12.3101 54.6196 12.1208L52.3442 9.84448C52.1545 9.65475 52.1545 9.34769 52.3442 9.15796L54.6196 6.88159Z" fill="url(#lg1)"/>
<path d="M124.312 15.9626L124.056 15.7034L124.056 15.7035L124.312 15.9626ZM124.996 15.9626L125.252 15.7035L125.252 15.7035L124.996 15.9626ZM126.476 17.4265L126.22 17.6856L126.22 17.6857L126.476 17.4265ZM126.758 39.0046H126.394V51.3689H126.758H127.123V39.0046H126.758ZM122.687 17.7722H123.051C123.051 17.74 123.064 17.7087 123.088 17.6857L122.832 17.4265L122.575 17.1673C122.414 17.3269 122.323 17.5447 122.323 17.7722H122.687ZM63.6802 15.7205L63.4241 15.4613L63.4241 15.4613L63.6802 15.7205ZM64.3628 15.7205L64.1067 15.9797L64.1068 15.9797L64.3628 15.7205Z" fill="url(#lg2)" mask="url(#lgmask)"/>
<defs>
<linearGradient id="lg0" x1="52.9909" y1="51.6661" x2="11.0448" y2="7.53449" gradientUnits="userSpaceOnUse">
<stop offset="0.02" stop-color="#D66EF0"/>
<stop offset="1" stop-color="#704DED"/>
</linearGradient>
<linearGradient id="lg1" x1="159.772" y1="59.6446" x2="123.241" y2="-13.9579" gradientUnits="userSpaceOnUse">
<stop offset="0.02" stop-color="#D66EF0"/>
<stop offset="1" stop-color="#704DED"/>
</linearGradient>
<linearGradient id="lg2" x1="159.772" y1="59.6446" x2="123.241" y2="-13.9579" gradientUnits="userSpaceOnUse">
<stop offset="0.02" stop-color="#D66EF0"/>
<stop offset="1" stop-color="#704DED"/>
</linearGradient>
</defs>
</svg>
